<?xml version="1.0" encoding="UTF-8" standalone="no"?>
<!-- Created with Inkscape (http://www.inkscape.org/) -->

<svg
   width="252mm"
   height="257.72064mm"
   viewBox="0 0 252 257.72065"
   version="1.1"
   id="svg5"
   inkscape:version="1.1.1 (3bf5ae0d25, 2021-09-20)"
   sodipodi:docname="hockey-pup.svg"
   xmlns:inkscape="http://www.inkscape.org/namespaces/inkscape"
   xmlns:sodipodi="http://sodipodi.sourceforge.net/DTD/sodipodi-0.dtd"
   xmlns="http://www.w3.org/2000/svg"
   xmlns:svg="http://www.w3.org/2000/svg">
  <sodipodi:namedview
     id="namedview7"
     pagecolor="#ffffff"
     bordercolor="#666666"
     borderopacity="1.0"
     inkscape:pageshadow="2"
     inkscape:pageopacity="0.0"
     inkscape:pagecheckerboard="0"
     inkscape:document-units="mm"
     showgrid="false"
     inkscape:zoom="0.34999068"
     inkscape:cx="741.44832"
     inkscape:cy="501.44192"
     inkscape:window-width="1920"
     inkscape:window-height="1009"
     inkscape:window-x="-8"
     inkscape:window-y="-8"
     inkscape:window-maximized="1"
     inkscape:current-layer="g95006"
     showborder="false"
     lock-margins="true"
     fit-margin-top="5"
     fit-margin-left="5"
     fit-margin-right="5"
     fit-margin-bottom="5" />
  <defs
     id="defs2" />
  <g
     inkscape:groupmode="layer"
     id="layer7"
     inkscape:label="Shade path"
     style="display:inline"
     sodipodi:insensitive="true"
     transform="translate(5,12.324591)">
    <path
       id="path10430-9"
       style="display:inline;fill:#ab6627;fill-opacity:1;stroke:none;stroke-width:0.264583;stroke-opacity:1"
       d="m 219.34639,157.01048 c -0.34131,1.68076 -1.15057,5.35844 -2.60647,7.80288 -1.99831,3.66821 -4.06924,6.99207 -7.53742,9.4739 -1.08221,0.75285 -1.74309,1.48193 -3.11819,1.16975 -1.21615,-1.14477 -1.81131,-2.46865 -2.67352,-3.85228 -0.20068,-0.78703 -1.6969,-2.78194 -1.6969,-2.78194 0,0 -1.84734,2.27329 -2.19499,2.70032 -0.25654,0.87781 0.51843,2.18911 0.6402,3.04251 0.59589,2.11332 0.28667,4.58248 -0.95847,6.48229 -0.17064,0.74849 1.6369,1.08936 2.00724,1.56301 3.11873,2.45632 4.57446,6.33245 6.18242,9.95653 0.14613,0.69339 1.82592,0.59846 2.24891,0.29339 2.86725,-1.35505 5.93472,-3.53073 8.51741,-5.36805 0.89926,-0.70668 2.22705,-1.85207 2.95453,-2.73714 0.65689,-0.65535 0.61186,-1.62895 -0.35597,-1.48099 -0.96783,0.14796 -2.83317,0.47936 -4.13617,0.61897 -0.88626,0.0491 -1.26102,0.28646 -2.11311,0.0157 0.73071,-1.207 1.42538,-1.87514 2.34221,-2.84878 4.89369,-5.3382 8.47771,-10.19036 10.32451,-17.29573 0.13298,-0.88366 0.86535,-3.40034 0.66571,-4.3005 -0.34,-0.62367 -1.8298,0.0424 -2.13385,0.36886 -1.32769,1.37467 -2.00532,2.21097 -3.97707,3.44888 -0.47581,-1.24141 0.2906,-2.25651 0.30481,-3.4366 0.0142,-1.18009 0.75448,-9.87197 0.14562,-10.92736 -2.04437,0.68206 -2.49014,6.41162 -2.83144,8.09238 z"
       sodipodi:nodetypes="zccccccccccccczccccccczcz" />
    <path
       id="path10396-2"
       style="display:inline;fill:#ab6627;fill-opacity:1;stroke:none;stroke-width:0.264583;stroke-opacity:1"
       d="m 94.166016,209.16797 c -0.700087,0.11595 -0.410972,0.99334 -0.489111,1.49139 -0.03866,4.19931 -0.08966,8.40012 0.03794,12.59845 4.996713,0.0851 9.993565,-0.0355 14.990235,-0.0625 0.95971,-3.14947 2.12741,-6.29966 4.39524,-8.75305 0.69711,-0.77172 1.44074,-1.53973 1.84109,-2.51843 -0.47024,-0.88652 -1.61308,-0.59847 -2.43311,-0.70418 -5.54673,-0.16166 -11.2763,0.27055 -16.592094,-1.64321 -0.572131,-0.17088 -1.150986,-0.37173 -1.75019,-0.40847 z" />
    <path
       style="display:inline;fill:#ab6627;fill-opacity:1;stroke:none;stroke-width:0.264583;stroke-opacity:1"
       d="m 64.22026,226.15897 c -1.007981,-0.0437 -8.943578,-1.86954 -8.943578,-1.86954 -0.383868,-0.0683 -2.632289,-2.27768 -2.632289,-2.27768 l 0.129331,3.14522 c 0.06331,1.53957 2.030221,3.72641 3.881212,4.70689 2.364259,1.25237 5.262898,1.67231 7.062834,1.86631 1.799935,0.194 15.68611,-0.15357 17.385291,-0.55138 1.699181,-0.39781 6.382269,-3.25551 7.748123,-6.0527 1.282586,-2.62666 1.473514,-5.06526 1.089998,-12.58683 -0.180715,-3.54421 -0.03366,-7.0953 -0.05056,-8.56972 -0.0169,-1.47441 -0.05075,-3.62043 -0.270471,-5.42521 -1.275761,-0.58919 -7.951808,-3.76062 -10.915678,-4.70435 -4.16102,-1.32491 -12.276929,-2.78671 -14.030431,-2.61729 -0.742165,0.0717 -1.344881,1.49918 -1.557029,2.24348 -0.2949,1.03462 -0.170133,2.15901 1.141808,2.16541 0.457218,0.002 3.812748,0.10853 5.320061,0.40949 7.136116,1.42481 12.047392,4.31651 14.567913,7.97996 2.529665,3.67674 3.364082,10.1583 1.789713,15.45977 -0.487008,1.63993 -2.20616,3.89804 -3.678005,4.96423 -1.315656,0.95306 -3.353932,1.35582 -5.468675,1.65166 -3.585036,0.24322 -7.852229,0.30804 -12.569568,0.0623 z"
       id="path10380-7"
       sodipodi:nodetypes="cscsszzsszcssscsssscc" />
    <path
       style="display:inline;fill:#ab6627;fill-opacity:1;stroke:none;stroke-width:0.264583;stroke-opacity:1"
       d="m 151.12763,223.55992 c 0.73733,-2.76846 -0.47714,-5.3263 -0.98618,-3.92093 -0.46846,1.29334 -4.57183,5.48742 -6.10254,6.26223 -1.5307,0.77481 -3.45107,1.51762 -4.5997,1.76052 -1.14863,0.24291 -5.34975,1.14324 -10.48743,0.91449 -5.13768,-0.22875 -9.82117,-1.06702 -11.35452,-1.62612 -0.85301,-0.31102 -4.26953,-2.68057 -4.78019,-3.91949 -0.11521,-0.2795 -1.28569,0.13611 -1.29062,0.4816 -0.0327,2.2879 0.31302,4.92967 1.78416,6.72084 5.54017,3.94737 11.33828,3.69472 15.8042,3.78131 4.46591,0.0866 14.01186,-0.59202 17.33054,-2.36121 2.21041,-1.41895 3.94496,-5.32478 4.68228,-8.09324 z"
       id="path10352-7"
       sodipodi:nodetypes="zszzzsssczcz" />
    <path
       style="fill:#ab6627;fill-opacity:1;stroke:none;stroke-width:0.264583px;stroke-linecap:butt;stroke-linejoin:miter;stroke-opacity:1"
       d="m 125.95209,200.11614 c 0,0 3.50322,-0.1885 5.61483,-0.0596 2.11161,0.1289 4.81747,0.46913 7.01602,0.93546 2.19855,0.46632 4.22203,0.98179 6.14736,1.80412 1.92533,0.82233 4.13501,2.09061 5.33569,3.06814 1.20068,0.97752 1.5361,1.529 2.08124,2.34422 0.54514,0.81521 1.20274,2.4723 1.20274,2.4723 l 2.27185,-10.8247 c 0,0 -4.88751,-2.51977 -7.81784,-3.40778 -2.93033,-0.88801 -6.21508,-1.40723 -9.68878,-1.7373 -3.4737,-0.33007 -11.09198,-0.13364 -11.09198,-0.13364 -0.27282,1.75058 -1.12696,3.68195 -1.07113,5.53878 z"
       id="path202382"
       sodipodi:nodetypes="czzzzzcczzcc" />
    <path
       style="fill:#ab6627;fill-opacity:1;stroke:none;stroke-width:0.264583px;stroke-linecap:butt;stroke-linejoin:miter;stroke-opacity:1"
       d="m 56.508946,194.66292 -0.377987,5.29181 c 0,0 -2.033871,-3.35185 -3.212883,-4.91382 -1.130041,-1.49709 -2.287678,-3.00146 -3.685368,-4.25235 -0.912137,-0.81634 -1.890026,-1.62242 -3.023888,-2.08368 -1.243222,-0.50574 -2.636982,-0.51286 -3.968856,-0.67866 -1.504981,-0.18735 -3.020183,-0.40952 -4.535837,-0.35605 -1.873853,0.0661 -3.849382,0.0729 -5.562847,0.83426 -0.824284,0.36628 -1.470137,1.00872 -2.091374,1.71715 -0.956225,1.09044 -2.548045,1.44897 -3.590869,2.45691 -0.586969,0.56733 -1.028448,1.27442 -1.450858,1.97296 -0.354243,0.58582 -0.900092,1.84605 -0.900092,1.84605 l -0.38945,2.22877 c 0,0 0.458871,2.29972 1.256133,4.1025 0.797261,1.80277 2.331422,4.1795 3.846681,6.48112 1.515259,2.30162 3.489736,5.30414 5.291807,7.27623 1.802071,1.97209 3.767964,3.50699 5.291809,4.63033 1.523845,1.12334 3.685366,2.26792 3.685366,2.26792 0,0 2.956523,1.26851 4.063351,1.51195 1.106828,0.24344 2.757597,0.45627 2.757597,0.45627 0,0 -0.277395,-1.75938 -0.283488,-2.7404 -0.0061,-0.98103 0.01025,-1.87397 0.283488,-3.11839 0.273234,-1.24442 0.795672,-2.78776 1.511945,-4.25234 0.716274,-1.46459 1.697972,-3.03967 2.60103,-4.14066 0.903058,-1.10098 1.81524,-1.95696 2.629691,-2.5686 1.052497,-0.71721 2.158391,-1.28145 3.273969,-1.88993 l 0.566981,-10.9616 -2.474108,-0.73976 z"
       id="path216427"
       sodipodi:nodetypes="ccaaaaaasaacczzzzczczzzzccccc" />
    <path
       style="fill:#ab6627;fill-opacity:1;stroke:none;stroke-width:0.264583px;stroke-linecap:butt;stroke-linejoin:miter;stroke-opacity:1"
       d="m 157.62027,206.097 c -1.03946,7.05574 -2.07893,14.11149 -3.11839,21.16723 1.54257,1.1216 3.07593,2.41577 4.77256,3.1288 3.20593,1.60307 6.76027,3.34496 9.92774,3.36623 4.79142,-0.0927 9.28145,-1.6483 13.32556,-3.35966 4.63234,-2.40269 9.01522,-5.28646 12.67437,-8.79886 2.23632,-2.17861 4.7431,-5.3625 6.0307,-7.29299 1.2876,-1.93049 2.0339,-2.4719 2.53107,-3.64077 0.49717,-1.16887 1.34161,-1.89018 1.09007,-3.10949 -0.25154,-1.21931 -0.0421,-2.73742 -0.73594,-4.00011 -0.69381,-1.26269 -1.5345,-3.28067 -2.55684,-3.88614 -1.02234,-0.60547 -1.4173,-0.42 -2.42057,1.05901 -1.00327,1.47901 -2.75591,3.75374 -4.27937,6.31752 -1.52346,2.56378 -3.25362,6.51311 -4.88943,9.00135 -1.63581,2.48824 -3.07202,4.65149 -4.58746,6.09313 -3.83497,3.65383 -9.88635,6.80836 -15.14526,7.06279 -3.24086,-0.20961 -5.57955,0.59056 -7.06741,-2.15475 -0.58436,-1.67876 -1.00501,-4.16152 -1.11007,-7.71123 -0.10506,-3.54971 -0.10404,-9.01726 -0.18899,-13.52555 -1.41745,0.0945 -2.83489,0.18899 -4.25234,0.28349 z"
       id="path268886"
       sodipodi:nodetypes="cccccczzzzzzzzccczcc" />
  </g>
  <g
     inkscape:groupmode="layer"
     id="layer10"
     inkscape:label="Base body path"
     style="display:inline;opacity:1"
     sodipodi:insensitive="true"
     transform="translate(5,12.324591)">
    <path
       style="display:inline;fill:#e29742;fill-opacity:1;stroke:none;stroke-width:0.264583;stroke-opacity:1"
       d="m 133.4004,116.31778 c 0,-3.99067 0.4787,-5.13318 3.18977,-7.61308 5.20107,-4.75758 7.28786,-9.235059 6.61055,-14.183773 -0.33791,-2.468874 -1.14356,-4.907401 -2.23877,-6.776235 -1.03107,-1.759392 -3.74084,-4.3996 -5.36169,-5.22405 l -1.37201,-0.697881 0.93795,1.466258 c 1.98874,3.108891 3.00445,6.719437 2.99042,10.630061 -0.0177,4.927906 -4.38232,9.67396 -10.40207,11.31106 -3.33492,0.90694 -9.17931,0.70725 -13.48532,-0.46078 -2.79997,-0.75951 -7.42018,-3.15111 -9.57612,-4.956973 -1.97683,-1.655841 -3.4912,-3.836746 -3.74343,-5.391104 -0.1488,-0.91693 -0.1416,-0.924788 1.13538,-1.239661 0.70683,-0.174286 2.39651,-0.854016 3.75485,-1.510516 4.16385,-2.012424 7.12422,-5.419117 8.13388,-9.360188 1.3591,-5.305102 -2.5552,-9.576374 -10.07443,-10.993159 -2.88871,-0.544296 -8.900779,-0.408922 -11.331575,0.255158 -6.175475,1.687103 -9.075367,5.810382 -7.725513,10.984698 0.24448,0.937157 0.662316,2.130854 0.928521,2.652657 0.906952,1.777775 2.862342,4.114443 4.411604,5.271812 1.753396,1.309867 2.720361,1.778235 4.985718,2.414921 0.873125,0.245396 1.575594,0.582835 1.561042,0.749869 -0.01455,0.167031 -0.04432,0.597207 -0.06615,0.955944 -0.132263,2.173711 -6.223272,5.812182 -11.586773,6.921382 -1.410266,0.29165 -2.974859,0.38568 -5.221314,0.31381 -2.879301,-0.0921 -3.35227,-0.17775 -4.620572,-0.83658 -4.400854,-2.286082 -6.39288,-6.619427 -5.614746,-12.214002 0.530913,-3.817125 3.20068,-8.135866 7.880267,-12.747484 1.37422,-1.354262 2.374112,-2.462292 2.221982,-2.462292 -0.719439,0 -3.52238,1.25132 -5.158846,2.303071 -4.459954,2.866392 -7.954917,8.034123 -9.341868,13.813091 -0.25509,1.062873 -0.591029,1.875504 -0.775324,1.875504 -0.707324,0 -1.02793,-1.933654 -1.008984,-6.085417 0.01815,-3.977105 0.05325,-4.228975 1.161458,-8.334374 0.918204,-3.401528 1.167143,-4.805198 1.266936,-7.14375 0.124005,-2.905985 0.03059,-3.662002 -1.422162,-11.509374 C 63.888923,55.503095 63.685495,48.27193 64.06399,45.021651 65.069081,36.390482 69.11597,27.496847 74.746224,21.545858 81.065799,14.866277 89.764529,10.212346 100.12354,7.9686655 c 5.62436,-1.2181908 8.00741,-1.4467543 15.02062,-1.4406607 7.28801,0.00633 10.44205,0.3601175 16.27187,1.8251971 7.72544,1.9414631 14.25757,5.1158191 20.57638,9.9993041 l 2.05555,1.588627 4.55903,0.191212 c 4.97226,0.208545 6.25605,0.504817 9.6978,2.238052 2.94461,1.482881 5.76231,3.794093 11.54992,9.473769 3.04497,2.988196 6.31022,6.08613 7.25611,6.884304 11.62534,9.809884 13.53825,11.856849 16.44344,17.595815 3.56705,7.046388 3.99913,12.363836 1.6377,20.154412 -1.59941,5.276601 -3.76822,9.409509 -9.09921,17.339579 -1.56522,2.328333 -3.75253,5.900451 -4.86069,7.938044 -2.27099,4.17571 -3.60437,5.89094 -5.40016,6.94659 -1.16084,0.68241 -1.42437,0.72578 -4.40962,0.72578 -3.01639,0 -3.26092,-0.0414 -4.89479,-0.82973 -4.73194,-2.28298 -9.32489,-8.15606 -11.47704,-14.675883 -1.08702,-3.293051 -1.51166,-6.451702 -1.50959,-11.228974 0.002,-4.762841 0.41263,-8.510291 1.59403,-14.549691 3.22599,-16.491438 1.25037,-32.47593 -4.65654,-37.6754 -1.07891,-0.949692 -2.79254,-1.637874 -3.16099,-1.269423 -0.0745,0.0745 0.0314,0.535276 0.23541,1.023946 1.3536,3.242899 2.88052,9.872355 3.49501,15.174372 0.74201,6.40218 0.42012,11.276506 -1.46954,22.253677 -1.67488,9.72944 -1.81838,11.095949 -1.83093,17.435442 -0.0126,6.387571 -0.0902,6.884178 -1.71447,10.980208 -2.94128,7.417126 -5.84978,11.552716 -11.12306,15.815876 -3.23511,2.61541 -10.32,7.20287 -11.12414,7.20287 -0.31271,0 -0.38524,-0.52115 -0.38524,-2.7682 z"
       id="path10452-7" />
    <path
       style="display:inline;fill:#e29742;fill-opacity:1;stroke:none;stroke-width:0.264583;stroke-opacity:1"
       d="m 207.53533,175.85577 c 3.01571,-1.49972 5.40377,-4.0015 7.14756,-6.85176 2.80493,-4.07209 4.79873,-8.65504 6.33054,-13.33856 0.6785,-2.73762 0.79474,-6.03207 0.61663,-8.80854 -0.62377,-4.9122 -2.3924,-9.35136 -5.14272,-13.43455 -1.12227,-1.31968 -2.31951,-2.92156 -3.77968,-4.17667 -1.30017,-1.32314 -4.38243,-4.1365 -5.86758,-4.88502 0.31523,1.91022 1.26421,5.56233 1.64232,7.49133 0.53249,1.69191 0.89412,3.39115 1.18161,5.13326 0.25816,5.71576 0.15382,11.52946 -1.11815,17.15022 -1.28347,6.03549 -3.54284,9.62276 -6.75881,14.75201 0.0149,1.67582 1.81386,3.9904 2.80622,5.56615 0.77711,1.23395 1.52137,2.30449 2.94201,1.40213 z"
       id="path10432-8"
       sodipodi:nodetypes="sssccsscsccscs" />
    <path
       style="display:inline;fill:#e29742;fill-opacity:1;stroke:none;stroke-width:0.264583;stroke-opacity:1"
       d="m 56.142663,225.0509 c 5.75368,1.23415 4.79277,1.03239 5.75368,1.23415 2.581915,0.34185 5.206375,0.47048 7.813887,0.39222 5.679356,-0.17046 1.735789,0.21644 5.679356,-0.17046 3.943567,-0.3869 4.946386,-0.53126 7.057524,-1.77738 1.967475,-1.58883 3.577737,-3.77854 4.218338,-6.24697 0.456759,-2.82352 0.301578,-5.7102 0.224222,-8.55869 -0.387767,-4.4127 -3.332737,-8.64311 -7.164039,-10.73651 -4.278487,-2.48264 -9.305733,-3.75264 -14.179823,-4.28979 -0.928086,-0.10228 -1.754309,-0.31784 -2.036449,0.35972 -0.282141,0.67756 -0.0202,2.24823 -0.108343,3.04563 -0.356997,3.22965 -0.09232,6.85244 -0.692029,10.04974 -0.991492,1.77206 -3.333041,2.28783 -4.784119,3.60976 -1.084018,0.94915 -2.178011,1.89558 -3.034075,3.25998 -0.856064,1.36439 -1.671043,3.33213 -1.976532,5.03957 0.150309,4.90524 0.444138,4.19029 3.228402,4.78903 z"
       id="path10384-9"
       sodipodi:nodetypes="ccszssssssssszcc" />
    <path
       style="display:inline;fill:#e29742;fill-opacity:1;stroke:none;stroke-width:0.264583;stroke-opacity:1"
       d="m 126.05246,229.23717 c 1.71741,0.1543 5.47575,0.18991 8.1699,-0.24009 8.7049,-1.71861 5.68229,-0.79227 8.7049,-1.71861 3.02261,-0.92634 5.45045,-2.90674 7.05334,-5.4295 0.91872,-1.44595 1.61749,-3.67887 1.90357,-5.65655 0.28609,-1.97768 0.41045,-4.15646 0.80599,-6.30229 0.33437,-1.81392 -1.05691,-3.74898 -2.49053,-4.76085 -3.99999,-3.31704 -9.19613,-4.48332 -14.2489,-5.24908 -2.84326,-0.37497 -7.0095,-0.69085 -9.865,-0.49907 -0.44968,3.15166 -1.37499,6.04726 -2.29161,9.08499 -0.40294,1.3847 -1.97745,2.85728 -3.11401,3.74336 -2.69681,1.58979 -4.35127,3.20936 -5.98184,5.92771 -1.10495,1.80914 -1.57523,3.68327 -1.6254,5.81558 0.93337,1.46944 1.12215,2.6327 4.89455,3.60979 3.7724,0.97709 2.42393,0.99108 5.93168,1.40841 0.71603,0.10225 0.43595,0.1119 2.15336,0.2662 z"
       id="path10350-6"
       sodipodi:nodetypes="zczszssscccsszcz" />
    <path
       style="fill:#e29742;fill-opacity:1;stroke:none;stroke-width:0.264583px;stroke-linecap:butt;stroke-linejoin:miter;stroke-opacity:1"
       d="m 163.76254,217.53109 c -1.31673,3.1963 -2.87977,6.9657 -1.11948,10.31486 1.21039,2.24667 4.08271,2.28726 6.31536,2.3083 2.7066,0.0163 5.27357,-0.86461 7.74674,-1.86734 3.41743,-1.2062 6.11961,-3.7824 8.8179,-6.10558 2.96496,-2.50972 4.95593,-5.8782 6.72475,-9.28041 2.90232,-5.17574 6.00222,-10.3378 7.74258,-16.04698 0.51532,-2.08426 -1.27447,-3.67933 -2.95016,-4.5327 -2.2776,-1.31074 -4.90347,-1.82529 -7.5068,-1.86032 -3.27732,-0.61545 -6.76156,-0.0177 -9.75794,1.39077 -3.15194,1.65472 -5.14463,4.70331 -6.9537,7.64842 -3.87733,5.53519 -6.51953,11.80269 -9.05925,18.03098 z"
       id="path266676"
       sodipodi:nodetypes="zzzzzzzzzzzzzzzzzzzzzzzz" />
  </g>
  <g
     inkscape:groupmode="layer"
     id="layer12"
     inkscape:label="Jersey path"
     style="display:inline"
     sodipodi:insensitive="true"
     transform="translate(5,12.324591)">
    <path
       style="display:inline;fill:#f7efe3;fill-opacity:1;stroke:none;stroke-width:0.264583;stroke-opacity:1"
       d="m 105.22228,206.77236 c -1.33315,-0.13244 -5.909962,-0.68168 -6.614582,-0.79378 -0.710797,-0.11308 -3.348056,-0.84829 -3.416469,-0.95243 -0.02994,-0.0456 -0.389776,-1.63069 -0.799631,-3.52246 -0.409856,-1.89177 -0.816513,-3.55865 -0.90368,-3.70417 -0.08717,-0.14552 -0.1955,-0.56224 -0.240741,-0.92604 -0.143129,-1.15099 -2.169896,-7.02902 -5.017617,-14.55208 -6.496806,-17.16317 -7.990657,-21.5392 -8.964387,-26.2599 -0.262641,-1.27331 -0.577379,-2.3151 -0.699412,-2.3151 -0.122037,0 -0.194845,0.14883 -0.161798,0.33073 0.03305,0.1819 -0.03103,1.40229 -0.142402,2.71198 -0.542229,6.37662 1.698958,15.91518 7.238362,30.80667 0.889635,2.39159 1.562153,4.49261 1.494483,4.66895 -0.08633,0.22498 -1.026578,-0.0239 -3.152066,-0.83441 -7.651207,-2.91755 -19.227603,-4.97463 -23.046223,-4.09522 -0.714496,0.16454 -1.390547,0.2051 -1.50233,0.0901 -0.43846,-0.45096 2.055119,-19.75809 3.768812,-29.18092 1.153295,-6.34144 4.018631,-17.25117 4.775512,-18.18269 0.204861,-0.25212 0.475371,-0.22972 1.228645,0.10177 4.488783,1.97533 12.527912,3.76914 17.048477,3.8041 l 1.379966,0.0107 1.716622,2.14602 c 3.464782,4.33148 12.092499,12.7704 14.368249,14.05384 1.93001,1.08846 3.03729,0.46617 11.43179,-6.42472 9.91499,-8.13901 16.67939,-12.99491 27.64896,-19.8481 5.38942,-3.36702 7.72705,-4.92841 10.45104,-6.98063 2.16862,-1.6338 7.53826,-6.26036 8.44153,-7.27334 0.27722,-0.31088 0.6577,-0.56524 0.84553,-0.56524 0.91231,0 12.43035,16.14951 17.80779,24.96841 2.35795,3.86701 6.8243,12.08817 8.49959,15.64512 0.68539,1.45521 2.07635,4.37224 3.09102,6.4823 2.07294,4.31079 3.251,7.14487 3.251,7.82099 0,0.59232 -2.57527,3.51952 -3.87907,4.40918 -0.71935,0.49086 -1.63333,0.78023 -3.13239,0.99173 -5.49163,0.77482 -11.28148,3.55448 -16.37253,7.86031 -2.33651,1.97613 -2.48754,2.08238 -2.68269,1.88722 -0.0896,-0.0896 0.14131,-1.75225 0.51312,-3.69481 1.38406,-7.2311 1.59977,-9.63811 1.59693,-17.81941 -0.003,-9.78474 -0.45616,-13.12275 -2.54806,-18.78541 l -0.87969,-2.38125 -0.16495,10.84791 c -0.18964,12.47107 -0.60263,17.59143 -2.09139,25.92917 -0.28581,1.60073 -0.93841,5.3512 -1.4502,8.33437 -1.54351,8.99686 -1.51101,8.91492 -2.98573,7.52929 -1.09226,-1.02627 -3.20757,-2.37774 -5.51344,-3.52252 -8.07001,-4.00649 -20.07126,-5.65298 -29.83009,-4.09248 l -1.04129,0.16651 0.19073,-0.9003 c 0.1049,-0.49516 0.24113,-1.07888 0.30273,-1.29716 1.22563,-4.34331 2.43458,-8.98998 3.30421,-12.7 1.99751,-8.52169 4.43945,-18.07246 6.08837,-23.8125 0.89877,-3.1287 1.662,-5.80761 1.69607,-5.95313 0.0667,-0.28495 0.40659,-1.15754 0.61835,-1.5875 0.26466,-0.53737 -0.42088,0.29026 -1.86283,2.24896 -3.71359,5.04442 -5.64579,10.15072 -10.1363,26.78765 -2.4248,8.98366 -3.47659,12.57216 -4.86664,16.60402 -1.20582,3.49748 -1.27188,4.18505 -0.54611,5.68429 0.43616,0.90098 0.75573,1.17107 1.85208,1.56531 0.8626,0.31019 1.32486,0.62876 1.32464,0.91291 -5.3e-4,0.64183 -1.28095,5.8174 -1.57531,6.36742 -0.203,0.37932 -0.85485,0.53244 -3.33843,0.78423 -3.32026,0.33661 -10.68776,0.57726 -12.41613,0.40555 z"
       id="path10400-1-6"
       sodipodi:nodetypes="ssssssssssssscscsssscsssssssssssssssscscsssssscscssssssssssssss" />
  </g>
  <g
     inkscape:groupmode="layer"
     id="layer17"
     inkscape:label="Jersey trim path"
     style="display:inline"
     sodipodi:insensitive="true"
     transform="translate(5,12.324591)">
    <path
       style="display:inline;fill:#be3123;fill-opacity:1;stroke:none;stroke-width:0.264583;stroke-opacity:1"
       d="m 102.29339,154.32422 c -2.463867,-2.18745 -9.400686,-9.31323 -9.594718,-9.85608 -0.04851,-0.13571 0.606335,-0.24981 1.455208,-0.25357 0.848871,-0.004 2.731982,-0.12237 4.184692,-0.2636 l 2.641288,-0.25678 2.12674,2.11569 c 1.1697,1.16362 2.22416,2.11569 2.34323,2.11569 0.11907,0 1.81851,-1.45852 3.77653,-3.24115 3.28167,-2.98772 3.76083,-3.32558 6.12798,-4.32102 9.58311,-4.02991 14.5195,-7.92025 17.27945,-13.61785 0.64482,-1.33115 0.95563,-1.66102 2.12188,-2.252 3.76509,-1.90792 11.36164,-7.03768 15.18119,-10.25149 2.45294,-2.06392 5.62494,-5.20958 6.65457,-6.59931 0.51212,-0.69122 1.09346,-1.25677 1.29187,-1.25677 0.47676,0 2.98332,4.09221 3.1938,5.21418 0.25426,1.35535 -1.11787,3.33017 -4.92253,7.08467 -5.19726,5.12874 -7.42758,6.83662 -16.40417,12.56159 -11.18478,7.13329 -15.8198,10.48502 -24.73854,17.88921 -5.46288,4.5352 -9.34243,7.52118 -9.77193,7.52118 -0.17555,0 -1.5015,-1.04966 -2.94654,-2.33259 z"
       id="path10434-6-1" />
    <path
       style="display:inline;fill:#be3123;fill-opacity:1;stroke:none;stroke-width:0.264583;stroke-opacity:1"
       d="m 82.549252,179.18161 c -0.923141,-2.79927 -2.019808,-6.18563 -2.019808,-6.18563 -2.84817,-0.9988 -5.22232,-1.60189 -8.50394,-2.24647 -3.28162,-0.64458 -7.039302,-0.93111 -10.937226,-0.95351 -0.351526,2.21855 -0.563569,3.13569 -0.635016,4.61157 -0.07145,1.47588 -0.4701,4.3915 -0.4701,4.3915 4.643297,-0.0607 8.689906,0.51406 12.200781,1.34409 3.944628,0.98104 8.049795,2.03971 11.714174,3.53574 -0.03377,-0.36351 -1.302065,-4.13512 -1.348865,-4.49724 z"
       id="path10424-4"
       sodipodi:nodetypes="cczczccccc" />
    <path
       style="display:inline;fill:#be3123;fill-opacity:1;stroke:none;stroke-width:0.264583;stroke-opacity:1"
       d="m 181.99861,176.00329 c 3.49525,-2.53436 7.6515,-5.68404 10.53789,-8.53264 -1.15009,-2.31107 -3.78423,-7.97203 -3.78423,-7.97203 -3.11838,2.33721 -6.25564,4.56825 -8.96513,6.39672 -2.70948,1.82846 -5.52239,3.75269 -8.81065,5.65855 0,0 -0.24315,3.86448 -0.48287,5.6201 -0.15967,2.03444 -0.76441,6.93441 -0.76441,6.93441 3.97199,-2.64972 8.77415,-5.57075 12.2694,-8.10511 z"
       id="path10422-9"
       sodipodi:nodetypes="zcczcccz" />
    <path
       style="display:inline;fill:#be3123;fill-opacity:1;stroke:none;stroke-width:0.264583;stroke-opacity:1"
       d="m 165.35321,186.0111 c 0.29678,-1.51727 0.59449,-3.75295 0.87879,-5.50106 -2.41832,-1.2913 -5.26261,-2.84516 -8.24057,-3.92333 -2.97796,-1.07817 -7.23429,-2.44704 -11.60948,-2.93359 -4.37519,-0.48656 -12.54202,-0.74342 -17.20896,0.10206 -0.62958,1.88456 -0.971,3.1341 -1.33987,4.6258 -0.36886,1.4917 -0.90913,3.8253 -0.94798,4.84462 4.25855,-0.87004 8.55402,-1.00252 12.81389,-0.87872 4.25987,0.1238 11.43765,1.82778 15.56166,3.34722 4.12401,1.51943 6.66582,3.13607 9.21341,4.83781 -0.0836,-0.31331 0.58232,-3.00354 0.87911,-4.52081 z"
       id="path10414-4"
       sodipodi:nodetypes="zczzccczzcz" />
    <path
       style="display:inline;fill:#be3123;fill-opacity:1;stroke:none;stroke-width:0.264583;stroke-opacity:1"
       d="m 120.60157,197.95449 c 0,0 -0.45776,-3.10548 -0.56008,-4.64028 -0.10232,-1.5348 0.67833,-4.96516 0.67833,-4.96516 -6.33294,0.39749 -11.82937,0.41223 -17.02256,0.098 -5.193193,-0.31422 -10.184237,-1.24212 -14.024048,-2.68863 0,0 2.140477,8.40066 3.060475,10.05725 2.323201,0.85477 8.899753,1.99476 12.706253,2.20321 3.8065,0.20845 15.16163,-0.0644 15.16163,-0.0644 z"
       id="path10408-2"
       sodipodi:nodetypes="czczcczcc" />
  </g>
  <g
     inkscape:groupmode="layer"
     id="layer21"
     inkscape:label="Jersey shadow path"
     style="display:inline"
     sodipodi:insensitive="true"
     transform="translate(5,12.324591)">
    <path
       style="opacity:0.2;fill:#241610;fill-opacity:1;stroke:none;stroke-width:0.264583px;stroke-linecap:butt;stroke-linejoin:miter;stroke-opacity:1"
       d="m 158.34381,120.74368 c 5.26086,6.51457 10.18229,12.58326 14.16829,19.65041 5.11198,8.4062 8.75628,15.4887 11.89104,24.81581 1.58829,4.41215 3.46263,10.77933 4.77898,15.27853 l 6.80375,-6.80375 c -4.82037,-11.08255 -9.6222,-22.27907 -16.54815,-32.25034 -4.1665,-6.44223 -8.40484,-12.84642 -13.21061,-18.8369 -1.52439,-1.32415 -2.84487,-4.97228 -4.51433,-4.83979 -1.12299,0.99535 -8.62983,-3.52854 -3.36897,2.98603 z"
       id="path274433"
       sodipodi:nodetypes="zzzzzcczz" />
    <path
       style="opacity:0.2;fill:#241610;fill-opacity:1;stroke:#000000;stroke-width:0.264583px;stroke-linecap:butt;stroke-linejoin:miter;stroke-opacity:1"
       d="m 169.58703,152.34768 c 0,0 1.60802,3.41014 2.40549,5.61281 0.79747,2.20267 1.61442,4.85364 2.27185,7.61739 0.65743,2.76375 1.19684,5.83272 1.60366,8.95377 0.40682,3.12105 0.80183,9.75559 0.80183,9.75559 l -9.08741,7.08283 c 0,0 2.21795,-11.94604 2.67277,-16.57115 0.45482,-4.62511 0.50915,-7.34209 0.40091,-11.09198 -0.10824,-3.74989 -1.0691,-11.35926 -1.0691,-11.35926 z"
       id="path281178"
       sodipodi:nodetypes="czzzcczzc" />
    <path
       style="opacity:0.2;fill:#241610;fill-opacity:1;stroke:none;stroke-width:0.264583px;stroke-linecap:butt;stroke-linejoin:miter;stroke-opacity:1"
       d="m 129.49553,158.49505 c 0,0 -3.74981,5.94639 -5.47917,9.35468 -1.72936,3.40829 -3.06788,6.92895 -4.81098,11.09198 -1.7431,4.16303 -4.08754,9.92869 -5.61281,13.89839 -1.90955,5.21192 -3.4921,10.01158 -5.88009,14.96749 h 13.89839 l 2.80641,-10.29015 -3.07368,-1.60366 -0.80183,-3.87551 4.5437,-17.10571 z"
       id="path283668"
       sodipodi:nodetypes="czzcccccccc" />
    <path
       style="opacity:0.2;fill:#241610;fill-opacity:1;stroke:none;stroke-width:0.264583px;stroke-linecap:butt;stroke-linejoin:miter;stroke-opacity:1"
       d="m 81.519375,175.19984 c 0,0 -0.501391,4.07102 -0.534553,5.88008 -0.03316,1.80906 0.136519,3.13999 0.267277,4.94462 0.130758,1.80463 0.534553,5.88009 0.534553,5.88009 l 6.548279,2.13821 -2.53913,-7.88466 z"
       id="path284957"
       sodipodi:nodetypes="czzcccc" />
    <path
       style="opacity:0.2;fill:#241610;fill-opacity:1;stroke:none;stroke-width:0.264583px;stroke-linecap:butt;stroke-linejoin:miter;stroke-opacity:1"
       d="m 67.220075,138.4493 -1.870937,6.14736 c 6.494267,3.27919 13.671313,5.15114 20.88194,5.95678 7.363353,0.16952 14.904772,0.24141 22.015962,-1.94763 5.83842,-2.13234 11.35869,-4.57774 16.62733,-7.8599 3.09367,-1.99275 5.57094,-4.41295 7.02,-7.5212 1.24971,-2.68063 1.07576,-8.80743 1.07576,-8.80743 -1.96858,5.49043 -6.87551,9.15776 -11.72056,12.00704 -8.73368,4.55417 -18.72094,6.47863 -28.526195,6.33515 -9.344248,-0.667 -17.967548,-1.58625 -25.5033,-4.31017 z"
       id="path286356"
       sodipodi:nodetypes="cczzzazzcc" />
  </g>
  <g
     inkscape:groupmode="layer"
     id="layer15"
     inkscape:label="Puck path"
     style="display:inline"
     sodipodi:insensitive="true"
     transform="translate(5,12.324591)">
    <path
       id="path74942"
       style="fill:#3d332e;fill-opacity:1;stroke:none;stroke-width:0.215077;stroke-opacity:1"
       d="m 66.664062,100.76562 c -2.832197,1.82728 -5.635249,4.25327 -6.577691,7.61442 -0.825355,2.74492 0.371933,5.70125 2.333827,7.65403 2.989508,3.01214 7.069564,4.60557 11.072407,5.76835 8.516074,2.41249 17.545805,2.45963 26.271856,1.30623 7.455239,-1.11495 15.030229,-3.14223 21.188659,-7.66334 1.68846,-1.30172 3.15008,-2.92773 4.27576,-4.73657 0.1613,-0.33002 0.50981,-0.94338 0.36458,-1.14754 -4.27582,0.25804 -8.54495,-0.32888 -12.65244,-1.42484 -3.68949,-0.80599 -6.97387,-2.74023 -10.42766,-4.17616 -3.529633,-1.36129 -7.631504,-1.66168 -11.131727,-0.046 -3.413444,1.17332 -7.078207,1.77027 -10.705852,1.88848 -5.054068,-0.0912 -9.633466,-2.47414 -13.816114,-5.09459 -0.06766,-0.0968 -0.130405,0.0382 -0.195605,0.0575 z" />
    <path
       id="path85828"
       style="fill:#312722;fill-opacity:1;stroke:#312722;stroke-width:0.235281;stroke-miterlimit:4;stroke-dasharray:none;stroke-opacity:1"
       d="m 128.77539,111.5293 c -4.5996,6.50446 -11.76874,10.64756 -19.24557,13.11263 -6.7026,2.15328 -13.741795,3.06261 -20.776265,2.94122 -6.771665,-0.16255 -13.535515,-1.31541 -19.872957,-3.78236 -3.03476,-1.23305 -5.899095,-2.84132 -8.384504,-4.97852 0,3.00781 0,6.01562 0,9.02343 2.93311,4.64663 7.88428,7.58757 12.984174,9.31823 3.193261,1.07826 6.482817,1.90397 9.819344,2.38324 3.863865,0.47433 7.769364,0.35715 11.652678,0.29531 7.98359,-0.40139 15.77546,-2.67675 23.06474,-5.87408 4.2304,-1.97736 8.37,-4.87846 10.39313,-9.22621 0.44881,-1.01116 0.89458,-2.06822 0.75746,-3.19957 0.0309,-3.55913 0.0599,-7.11827 0.0922,-10.67739 -0.16146,0.22136 -0.32292,0.44271 -0.48438,0.66407 z" />
  </g>
  <g
     inkscape:groupmode="layer"
     id="layer14"
     inkscape:label="Puck highlight path"
     style="display:inline"
     sodipodi:insensitive="true"
     transform="translate(5,12.324591)">
    <path
       style="display:inline;fill:#5b554f;fill-opacity:1;stroke:none;stroke-width:0.264583;stroke-opacity:1"
       d="m 98.949661,120.77318 c 6.779239,-1.07803 13.731889,-2.79682 19.572249,-6.40381 1.79709,-1.10988 4.4586,-4.50259 4.4586,-4.50259 l 2.25381,0.004 c 0,0 -0.38601,1.78983 -4.19589,5.05077 -3.80987,3.26094 -13.04307,6.64018 -20.13124,8.05022 -6.553366,1.30366 -13.417396,1.1054 -20.043804,0.24701 -3.839285,-0.49735 -7.280198,-1.32176 -11.193415,-3.09752 -3.913216,-1.77576 -6.013386,-3.37998 -7.28094,-4.75705 -1.428305,-1.55171 -2.446672,-3.51933 -2.42278,-4.36217 0.02389,-0.84284 0.234004,-2.13781 0.496731,-3.3354 0,0 0.198712,1.06675 1.03404,2.47524 0.835328,1.40848 2.280394,3.23232 5.465093,5.14295 4.668687,2.80094 10.423341,4.54795 15.975754,5.47534 5.264341,0.87928 10.740755,0.8512 16.011792,0.013 z"
       id="path10442-6"
       sodipodi:nodetypes="aacczaasssczsaa" />
  </g>
  <g
     inkscape:groupmode="layer"
     id="layer18"
     inkscape:label="Paw pad path"
     sodipodi:insensitive="true"
     style="display:inline;opacity:1"
     transform="translate(5,12.324591)">
    <ellipse
       style="display:inline;fill:#3c1c13;fill-opacity:0.972549;stroke:none;stroke-width:0.468466;stroke-miterlimit:4;stroke-dasharray:none;stroke-opacity:1"
       id="path220893-0"
       cx="-122.23155"
       cy="178.6712"
       rx="6.9116616"
       ry="10.416059"
       transform="matrix(0.69095717,-0.72289569,0.72288537,0.69096797,0,0)" />
    <ellipse
       style="display:inline;fill:#3c1c13;fill-opacity:0.972549;stroke:none;stroke-width:0.20413;stroke-miterlimit:4;stroke-dasharray:none;stroke-opacity:1"
       id="path220893-6-3"
       cx="-92.911789"
       cy="174.36577"
       rx="2.9778295"
       ry="4.5902905"
       transform="matrix(0.76857077,-0.63976478,0.57910891,0.81525019,0,0)" />
    <ellipse
       style="display:inline;fill:#3c1c13;fill-opacity:0.972549;stroke:none;stroke-width:0.227169;stroke-miterlimit:4;stroke-dasharray:none;stroke-opacity:1"
       id="path220893-6-5-5-1"
       cx="276.01532"
       cy="143.19598"
       rx="3.4541402"
       ry="4.9009824"
       transform="matrix(0.95338436,0.30175863,-0.46085081,0.88747762,0,0)"
       inkscape:transform-center-x="0.78491615"
       inkscape:transform-center-y="1.0251149" />
    <ellipse
       style="display:inline;fill:#3c1c13;fill-opacity:0.972549;stroke:none;stroke-width:0.557657;stroke-miterlimit:4;stroke-dasharray:none;stroke-opacity:1"
       id="path220893-6-5-5-1-3"
       cx="282.27295"
       cy="178.81917"
       rx="9.1151733"
       ry="11.191647"
       transform="matrix(0.97138584,0.23750694,-0.53289663,0.84618035,0,0)"
       inkscape:transform-center-x="2.0830897"
       inkscape:transform-center-y="2.2388379" />
  </g>
  <g
     inkscape:groupmode="layer"
     id="layer19"
     inkscape:label="Highlight base path"
     style="display:inline"
     sodipodi:insensitive="true"
     transform="translate(5,12.324591)">
    <path
       id="path10460-4"
       style="display:inline;fill:#f6c279;fill-opacity:1;stroke:none;stroke-width:0.264583;stroke-opacity:1"
       d="m 104.53516,52.130859 c -1.99462,0.0915 -3.98017,1.030402 -5.089985,2.732805 -1.789827,2.443488 -2.817139,5.381734 -4.863383,7.652044 -3.026692,3.665058 -6.755081,6.775133 -11.003186,8.923492 -3.452482,1.810808 -6.207886,4.678125 -8.688954,7.632815 -2.414332,2.968291 -4.852667,6.292323 -5.216057,10.226157 -0.137135,1.569955 0.952214,2.855649 1.509554,4.232203 1.944459,3.688991 6.124481,5.700059 10.172527,5.918651 5.093365,0.340399 10.301275,-1.223835 14.368067,-4.303309 0.396956,-0.35049 1.33485,-1.308084 0.912143,-1.920934 -0.721249,-0.699753 -1.810287,-0.505699 -2.66339,-0.921335 -4.933411,-1.736182 -8.886359,-6.204996 -9.488121,-11.401104 -0.355975,-3.184187 1.515002,-6.338958 4.285293,-7.852091 3.675062,-2.195865 8.114029,-2.215453 12.260932,-2.081489 3.77333,0.152537 7.7484,1.117606 10.65847,3.674516 2.0437,1.726043 2.52646,4.552196 2.25014,7.17543 -0.73275,3.526491 -2.90433,6.337529 -5.89884,8.323651 -1.92162,1.085043 -3.87558,2.120334 -6.06047,2.637482 -0.59732,0.212365 -0.84538,1.024293 -0.31528,1.446879 1.90576,2.191683 4.82993,4.411305 7.37927,5.793858 4.10088,2.16954 8.77819,3.37223 13.43167,3.03345 2.47689,-0.0988 4.97217,-0.6405 7.10186,-1.95495 2.59039,-1.512451 4.92077,-3.580892 6.49094,-6.153768 0.99124,-1.809148 1.61041,-3.913183 1.4183,-5.982886 -0.49498,-2.348835 -1.7355,-4.458612 -2.9515,-6.497582 -1.74585,-2.611377 -4.62531,-4.059558 -7.17382,-5.74659 -2.97925,-1.838079 -5.92936,-3.81502 -8.29381,-6.388507 -2.36285,-2.406017 -3.99337,-5.452682 -4.88819,-8.691288 -0.8836,-2.898116 -1.61049,-6.153208 -4.06524,-8.173983 -1.57092,-1.230691 -3.65171,-1.434964 -5.57894,-1.333617 z"
       sodipodi:nodetypes="cccccccccccccccccccccccccccccc" />
    <path
       style="fill:#f6c279;fill-opacity:1;stroke:none;stroke-width:0.264583px;stroke-linecap:butt;stroke-linejoin:miter;stroke-opacity:1"
       d="m 72.195374,24.380113 c 0,0 2.76428,-2.430406 4.713364,-3.791326 1.949084,-1.36092 4.568852,-3.034728 7.004209,-4.335378 2.435357,-1.30065 5.269471,-2.33813 7.74872,-3.212883 2.479249,-0.874753 4.377612,-1.46046 7.08724,-2.078925 2.709633,-0.618465 6.261093,-1.2234797 9.166163,-1.5119447 2.90507,-0.288465 5.33558,-0.3238185 8.22121,-0.2834896 2.88563,0.040329 6.26397,0.2068738 9.07167,0.5669793 2.8077,0.360106 5.34883,0.820767 7.74871,1.511945 2.39988,0.691178 4.53566,1.649256 6.61476,2.551407 2.0791,0.902151 4.23831,2.027975 5.85879,2.834897 1.62048,0.806922 2.89612,1.414283 3.85766,1.934314 0.96154,0.52003 1.22254,0.862122 1.88993,0.944965 0.66738,0.08284 2.56385,0.03341 2.56385,0.03341 0,0 -2.9679,-2.377558 -4.62608,-3.66866 -1.65818,-1.291102 -3.67461,-2.59838 -6.14227,-3.874359 -2.46766,-1.275979 -6.07245,-2.7881184 -8.69369,-3.5908698 -2.62124,-0.8027514 -4.43961,-1.032435 -6.89824,-1.4174486 -2.45863,-0.3850136 -4.97475,-0.6663319 -7.84322,-0.850469 -2.86847,-0.1841371 -6.63977,-0.3465804 -9.35516,-0.1889932 -2.71539,0.1575872 -4.21517,0.4578764 -6.89825,0.9449657 -2.68308,0.4870893 -6.288887,1.1199357 -9.166163,2.0789244 -2.877276,0.9589887 -5.574497,2.2875265 -8.032208,3.5908695 -2.457711,1.303343 -4.793747,2.751461 -6.709256,4.157849 -1.915509,1.406388 -3.647389,2.83926 -4.819324,4.157848 -1.171935,1.318588 -2.362415,3.496373 -2.362415,3.496372 z"
       id="path236481"
       sodipodi:nodetypes="czzzzzzzzzzzzczzzzzzzzzzzcc" />
    <path
       style="fill:#f6c279;fill-opacity:1;stroke:none;stroke-width:0.264583px;stroke-linecap:butt;stroke-linejoin:miter;stroke-opacity:1"
       d="m 56.729468,194.31012 -0.400915,5.88008 c 0,0 -1.182386,-1.69086 -1.670479,-2.47231 -0.488093,-0.78145 -0.79841,-1.38045 -1.31968,-2.12151 -0.52127,-0.74106 -1.021248,-1.51086 -1.987869,-2.48901 -0.966621,-0.97814 -2.279271,-2.58855 -3.708463,-3.54141 -1.457323,-0.8557 -3.00277,-1.43488 -4.677341,-1.47002 -0.946759,0.0402 -1.815652,0.31578 -2.739586,0.26727 -0.607928,-0.0378 -1.202081,-0.29539 -1.937755,-0.40091 -0.735674,-0.10552 -1.700989,-0.20531 -2.472309,-0.20046 -0.77132,0.005 -1.435818,0.0998 -2.138214,0.20046 -0.702396,0.10065 -1.365718,0.17772 -1.904346,0.48443 -0.538628,0.30673 -0.937368,0.74952 -1.236155,1.11923 -0.298787,0.36971 -0.51966,0.62233 -0.73501,1.00228 -0.452877,0.87109 -0.908214,1.0922 -2.103124,1.44268 -1.19491,0.35048 -2.206494,1.49728 -2.738544,2.62817 -0.532051,1.13089 -0.782588,1.83142 -0.87137,2.21014 -0.08878,0.37872 -0.317392,1.67047 -0.317392,1.67047 0,0 -0.827865,-3.00651 -0.918763,-4.34324 -0.0909,-1.33673 0.182209,-2.96333 0.534553,-4.34325 0.352344,-1.37992 0.896104,-2.74612 1.536841,-3.87551 0.640737,-1.12939 1.329361,-2.01645 2.205031,-2.87322 0.87567,-0.85677 1.857432,-1.7016 3.725169,-2.65606 1.867737,-0.95446 5.342129,-1.71793 7.233174,-1.754 1.891045,-0.0361 2.976648,0.12029 4.543703,0.53455 1.567055,0.41426 3.243745,1.17567 4.744162,2.00457 1.500417,0.8289 2.989516,1.71359 4.209605,2.94005 1.220089,1.22646 3.213627,3.81231 3.675055,4.87779 0.461428,1.06548 0.02381,1.77931 0.267276,2.67277 0.243465,0.89346 1.202746,2.60597 1.202746,2.60597 z"
       id="path241303"
       sodipodi:nodetypes="cczzzccczzzzzczzzczzzzzzzzzzzc" />
    <path
       style="fill:#f6c279;fill-opacity:1;stroke:none;stroke-width:0.264583px;stroke-linecap:butt;stroke-linejoin:miter;stroke-opacity:1"
       d="m 161.58912,212.80626 c 0,0 -0.25276,6.96665 0.28349,10.20563 2.55095,-7.99367 5.94327,-15.74588 10.39462,-22.86817 2.13083,-3.08393 4.33776,-6.48569 7.81411,-8.16822 2.01768,-0.71851 4.05504,-1.49879 6.17138,-1.84842 1.86259,0.30448 3.75626,0.27977 5.63105,0.50762 2.98193,0.55268 6.31851,1.57551 8.04729,4.25535 0.60076,1.73386 -0.36005,3.4958 -0.35432,5.25367 2.07501,-2.02093 3.29013,1.10939 3.87436,2.7404 0.53509,1.05671 1.1708,6.67937 1.76919,3.74266 1.15857,-3.25974 0.52806,-8.50617 -0.17912,-11.77439 -1.3213,-4.27181 -4.17267,-8.10918 -7.86341,-10.62952 -3.19868,-1.96261 -7.18303,-1.45886 -10.7057,-0.91128 -4.69326,0.94238 -8.93879,3.50689 -12.55144,6.57037 -3.30513,3.38189 -5.41503,6.06402 -7.48425,9.97473 -2.06923,3.91071 -2.54413,5.46097 -3.84187,8.71482 -0.47723,1.19657 -1.00538,4.23475 -1.00538,4.23475 z"
       id="path262171"
       sodipodi:nodetypes="ccssssssscsssszsc" />
  </g>
  <g
     inkscape:groupmode="layer"
     id="layer20"
     inkscape:label="Highlight path"
     sodipodi:insensitive="true"
     style="display:inline"
     transform="translate(5,12.324591)">
    <path
       style="display:inline;fill:#834b21;fill-opacity:1;stroke:none;stroke-width:0.264583;stroke-opacity:1"
       d="m 191.63758,101.89472 c 1.31611,-2.057726 3.1621,-5.611539 4.49378,-7.635119 3.96869,-6.030684 7.22498,-11.251731 8.68309,-16.336269 1.41679,-4.940436 1.81724,-7.004197 1.93277,-11.035337 0.10294,-3.59197 -0.46659,-5.663536 -2.26176,-8.920759 l -1.28636,-2.334018 -0.20115,2.645602 c -0.40252,5.294164 -1.7108,12.071437 -4.25866,17.150915 -3.5426,7.062589 -12.62194,18.116457 -16.37679,19.938317 -2.91226,1.413036 -6.34292,0.734385 -8.82257,-1.745274 -4.13651,-4.136504 -6.83427,-11.225962 -7.60129,-19.975538 -0.18515,-2.112047 -0.98899,-3.601299 -0.98899,-3.601299 -0.17665,-0.145732 -0.37524,0.670081 -0.64818,2.404216 -1.04602,6.645885 -1.2755,13.066379 -0.39233,17.723892 0.47523,2.506213 2.12421,6.965602 3.242,8.964253 2.07031,3.701778 5.7507,7.833538 8.48468,9.321558 2.73398,1.48802 8.93514,1.56374 10.32909,0.6506 1.39396,-0.91313 4.35651,-5.15802 5.67262,-7.21574 z"
       id="path10456-1"
       sodipodi:nodetypes="zsssscssssscssszzzz" />
    <path
       id="path10454-4"
       style="display:inline;fill:#ab6627;fill-opacity:1;stroke:none;stroke-width:0.264583;stroke-opacity:1"
       d="m 159.8125,42.083984 c -0.28434,1.151325 -0.11691,2.394388 -0.19317,3.579648 -0.0206,5.976294 -0.49722,11.937395 -1.89827,17.756075 -0.94372,4.234458 -2.31808,8.40631 -3.40868,12.620701 -0.82312,3.034197 -1.24719,6.177298 -1.96908,9.214398 -0.60823,2.714963 -1.98349,5.203854 -3.83426,7.268299 -1.47392,1.690176 -3.21234,3.368928 -4.898,4.853475 -0.6617,0.112932 -0.28447,1.037384 -0.50485,1.509219 -0.47358,1.823691 -1.18907,3.234261 -2.07178,4.795551 -1.46016,2.02544 -3.23531,4.03501 -5.14897,5.63885 -1.61576,1.57215 -2.55585,3.61311 -2.45025,5.74015 -0.011,1.31954 -0.0503,2.96995 -0.0523,4.28955 4.16333,-2.01629 8.22644,-4.4249 11.74757,-7.21337 3.79235,-3.01217 7.14951,-7.04326 9.25158,-11.4086 1.34768,-2.706922 2.51509,-4.56041 3.12762,-8.755274 0.61253,-4.194864 0.34892,-10.910785 0.82377,-16.355282 1.21536,-7.311271 2.68228,-14.523749 3.10305,-21.939701 0.20591,-3.395432 0.19457,-5.548639 -0.17755,-8.911921 0.0165,-0.523648 -0.75968,-3.389746 -0.75968,-3.389746 0,0 -0.59781,0.490951 -0.68639,0.707978 z"
       sodipodi:nodetypes="cccccccccccccczcccccc" />
    <path
       style="display:inline;fill:#ce8e54;fill-opacity:1;stroke:none;stroke-width:0.264583;stroke-opacity:1"
       d="m 87.361866,101.42995 c 1.504308,-0.44697 2.572947,-0.93071 3.960177,-1.757744 0.58039,-0.346016 2.073012,-1.450847 2.445182,-1.657278 0.296712,-0.164576 2.431812,-1.797192 2.719382,-2.390298 0.278307,-0.573995 0.59805,-2.493421 0.136505,-1.833678 -0.365972,0.53214 -1.973011,1.688458 -2.558902,2.164052 -0.891017,0.592805 -3.552462,2.111465 -5.510678,2.643471 -2.438691,0.662543 -8.063333,0.811231 -10.186458,0.269282 -3.123673,-0.797346 -5.624316,-2.707317 -7.113256,-5.433041 -0.743728,-1.361501 -1.53215,-4.54455 -1.693012,-3.903633 -0.386281,1.539073 0.361542,7.67101 2.232715,9.186765 1.331476,1.078566 2.289016,2.003122 2.921734,2.239632 1.724078,0.64445 4.146127,1.06678 5.770588,1.07008 2.288771,0.005 5.371715,-0.15064 6.876023,-0.59761 z"
       id="path10462-0"
       sodipodi:nodetypes="ssssccssscssss" />
    <path
       style="display:inline;fill:#ce8e54;fill-opacity:1;stroke:none;stroke-width:0.264583;stroke-opacity:1"
       d="m 134.07638,102.53152 c 0.89975,-0.73143 1.9823,-1.89326 2.46607,-2.714967 0.3988,-0.677375 1.21956,-2.548734 1.41123,-3.507673 0.33787,-1.690353 0.0459,-5.700549 -0.46702,-7.346454 -0.11373,2.454341 -1.81741,6.460607 -3.29328,8.247695 -2.25368,2.624466 -5.31093,4.661309 -8.7162,5.389629 -7.30076,1.14911 -15.16014,-0.78227 -20.77669,-5.6776 -0.9494,-0.731301 -2.76055,-2.52123 -3.6718,-3.3485 -0.76736,0.74762 0.61753,2.753619 1.17491,3.529936 1.6716,2.197849 3.36498,3.964064 5.64607,5.236434 1.07327,0.59866 2.5719,1.28815 3.82307,1.72138 2.14949,0.74428 4.47198,1.12444 6.7266,1.43883 2.82387,0.39377 6.09725,0.46362 8.88408,-0.0748 2.65293,-0.51255 5.96006,-2.14846 6.79299,-2.89392 0.83293,-0.74546 -3e-5,1e-5 -3e-5,1e-5 z"
       id="path10458-7"
       sodipodi:nodetypes="cssccccccsssssc" />
  </g>
  <g
     inkscape:groupmode="layer"
     id="g95006"
     inkscape:label="Pup outline path"
     style="display:inline"
     transform="translate(5,12.324591)"
     sodipodi:insensitive="true">
    <path
       id="path94980"
       style="display:inline;fill:#000000;fill-opacity:1;stroke:#000000;stroke-width:0.999999;stroke-opacity:1"
       d="m 435.94141,5.2910156 c -29.65777,0.017185 -59.85132,4.6168889 -87.81836,13.8554684 -20.62655,6.813739 -48.7049,22.614156 -66.23438,37.271485 -7.48946,6.262341 -8.06853,6.548264 -14.5,7.164062 -25.66994,2.457853 -42.67659,8.248908 -59.87695,20.390625 -14.97496,10.57081 -25.2165,23.220804 -41.38281,51.115234 -10.52609,18.1624 -20.95428,33.36988 -35.81836,52.23438 -21.30146,27.03439 -30.12218,42.39158 -35.281253,61.42578 -3.286088,12.12392 -3.689753,34.53529 -0.869141,48.27343 3.662438,17.83834 9.444904,30.92361 22.980464,52.00586 11.40677,17.76641 14.75618,25.56163 17.58008,40.92774 2.88079,15.67559 9.58221,23.56148 22.25977,26.19336 7.59857,1.57746 14.49422,0.0931 25.72265,-5.53516 18.5078,-9.27719 29.18826,-22.8234 37.07813,-47.02539 1.7955,-5.50766 3.87306,-10.12573 4.62305,-10.28125 0.77069,-0.15984 1.88523,1.16553 2.56836,3.05469 0.66387,1.83588 3.23483,6.3617 5.71289,10.05664 2.47807,3.69495 4.50586,7.02027 4.50586,7.38867 0,0.36839 -3.77397,4.35705 -8.38477,8.86524 -12.393,12.1171 -17.14016,23.65749 -16.01172,38.91601 0.20338,2.74998 1.06821,15.35 1.92188,28 2.29078,33.94568 2.87607,37.81136 7.02734,46.26367 2.53539,5.16227 5.62846,9.29029 10.69727,14.2793 l 7.13086,7.01953 -1.04883,4.71875 c -0.57775,2.5957 -3.57847,14.39374 -6.66602,26.21875 -3.08756,11.82501 -7.2004,30.18541 -9.14062,40.80078 -3.24034,17.72856 -11.49565,73.13726 -13.10742,87.97266 -0.37482,3.4498 -1.09337,6.52549 -1.59571,6.83594 -0.50235,0.31029 -3.29953,-1.2766 -6.21679,-3.52735 -9.42321,-7.26996 -21.14781,-13.67482 -31.24415,-17.07031 -12.63047,-4.24774 -27.82359,-5.22109 -39.82617,-2.55078 -14.7136,3.27348 -32.335445,14.19627 -40.728513,25.24609 -17.574648,23.1377 -21.109492,47.45251 -11.306641,77.79297 10.200639,31.57164 39.101304,70.08541 66.099614,88.08594 15.1463,10.09848 33.68875,17.41406 44.13281,17.41406 3.49356,0 4.97329,0.75255 9.93555,5.04492 15.59579,13.49053 40.22941,19.0647 77.33203,17.49805 37.95995,-1.6029 51.76721,-6.05656 67.28125,-21.69727 l 7.78125,-7.8457 h 30.35351 30.35352 l 1.66992,5.10938 c 8.90241,27.21751 43.53162,37.51993 106.87695,31.79882 23.02772,-2.07979 35.01323,-5.37132 45.1836,-12.4082 2.74998,-1.90276 6.06192,-4.81747 7.36132,-6.47851 2.98734,-3.81895 5.48733,-3.81807 11.51368,0.004 34.9415,22.15922 73.39147,23.6779 111.74804,4.41406 32.39653,-16.27052 60.57409,-40.44369 78.60743,-67.4375 5.4265,-8.12299 10.87797,-18.40103 11.42578,-21.53906 0.18822,-1.0789 0.66312,-2.20354 1.05468,-2.49805 0.39156,-0.29442 1.89146,-4.79449 3.33399,-10 2.08418,-7.52088 2.69482,-12.23526 2.97265,-22.96289 l 0.34961,-13.5 10.64063,-5.72265 c 5.85161,-3.14722 13.86745,-7.86942 17.81445,-10.49219 20.12863,-13.37541 38.36276,-32.73026 41.65821,-44.2207 0.75727,-2.64083 0.56498,-3.31688 -1.29493,-4.53321 -1.20211,-0.78614 -5.22303,-1.73986 -8.93554,-2.11914 -5.48202,-0.56009 -6.75,-1.01697 -6.75,-2.42968 0,-0.95668 0.72699,-2.34325 1.61718,-3.08204 5.31882,-4.41426 16.28375,-24.10501 21.23047,-38.12695 6.5901,-18.68024 8.42742,-41.57263 4.69336,-58.48242 -1.71292,-7.75691 -4.58555,-14.29511 -6.27734,-14.28906 -0.42059,9.8e-4 -2.33868,3.03899 -4.26367,6.75 -5.16662,9.96015 -6.25705,9.19903 -7.61719,-5.32422 -2.72784,-29.12754 -10.59909,-51.03742 -26.12305,-72.71875 -16.0007,-22.34748 -45.6913,-44.71094 -59.36133,-44.71094 -7.00388,0 -10.96811,3.66296 -11.65039,10.76367 -0.41408,4.30934 0.16919,6.91636 3.58985,16.04297 7.99426,21.32931 11.19595,35.98864 12.71093,58.19336 1.54179,22.59761 -4.22578,53.8322 -13.66406,73.99609 -5.10183,10.89944 -12.95165,22.99194 -14.88476,22.92969 -0.93294,-0.0302 -4.52422,-6.31685 -9.5,-16.63281 -24.3224,-50.42574 -56.1134,-102.57122 -91.93164,-150.79297 -22.34468,-30.08243 -20.92258,-27.73567 -21.6543,-35.71875 -0.73187,-7.98436 -4.05454,-15.08266 -14.61719,-31.22461 l -6.50781,-9.94531 2.0918,-4.30469 c 1.15048,-2.36806 2.50512,-4.30664 3.00976,-4.30664 0.50468,0 2.37443,2.58752 4.15625,5.75 12.86646,22.83632 29.34207,39.2311 47.35938,47.12695 26.24991,11.50368 53.54708,5.30451 68.92968,-15.65429 1.90598,-2.59695 7.56557,-12.30248 12.57813,-21.56641 5.01252,-9.26392 13.46969,-23.66392 18.79297,-32 29.49278,-46.18473 39.55301,-72.38371 39.43554,-102.70898 -0.11338,-29.22014 -12.00471,-57.67504 -34.87304,-83.44727 -7.79418,-8.78386 -11.93658,-12.5689 -40.76953,-37.24023 -7.7,-6.58862 -24.13969,-21.82944 -36.53125,-33.86914 C 673.86552,89.561317 661.58928,78.560759 657.21289,75.642578 637.75286,62.666602 617.74873,56.498651 597.65234,57.277344 l -8.03906,0.310547 -6.96094,-5.132813 C 566.66094,40.662465 547.72188,29.858634 530.69141,22.8125 502.47797,11.139558 469.55354,5.2715394 435.94141,5.2910156 Z m -0.75,19.3808594 c 27.54523,0.02392 39.46603,1.361139 61.5,6.898437 29.19851,7.337814 53.88546,19.335703 77.76757,37.792969 l 7.76954,6.003907 17.23046,0.722656 c 18.7928,0.788201 23.64611,1.908175 36.6543,8.458984 11.12924,5.60459 21.77801,14.340139 43.65234,35.806642 11.50855,11.29397 23.85077,23.00281 27.42579,26.01953 43.93829,37.07673 51.16819,44.81333 62.14843,66.50391 13.48177,26.63201 15.11455,46.72913 6.18946,76.17382 -6.04502,19.94306 -14.242,35.56324 -34.39063,65.53516 -5.91579,8.8 -14.18277,22.30081 -18.37109,30.00195 -8.58327,15.78221 -13.62292,22.266 -20.41016,26.25586 -4.38742,2.57919 -5.38318,2.74219 -16.66601,2.74219 -11.40053,0 -12.32475,-0.15525 -18.5,-3.13477 -17.8845,-8.62848 -35.2448,-30.82699 -43.37891,-55.46874 -4.10842,-12.44618 -5.7129,-24.38363 -5.70508,-42.43946 0.008,-18.00129 1.56026,-32.16611 6.02539,-54.99219 12.19272,-62.32974 4.72572,-122.74299 -17.59961,-142.39453 -4.07777,-3.58938 -10.5547,-6.18944 -11.94726,-4.79687 -0.28158,0.28157 0.11761,2.0222 0.88867,3.86914 5.11597,12.25662 10.8865,37.31244 13.20898,57.35156 2.80445,24.19722 1.58929,42.62086 -5.55273,84.10938 -6.33026,36.77268 -6.87249,41.93619 -6.91992,65.89648 -0.0476,24.142 -0.3415,26.01894 -6.48047,41.5 -11.11665,28.03323 -22.10856,43.66461 -42.03906,59.77734 -12.22719,9.88502 -39.00566,27.22266 -42.04493,27.22266 -1.18189,0 -1.45507,-1.96815 -1.45507,-10.46094 0,-15.08284 1.80812,-19.40254 12.05468,-28.77539 19.65759,-17.9814 27.54429,-34.90362 24.98438,-53.60742 -1.27714,-9.33118 -4.32156,-18.54802 -8.46094,-25.61133 -3.89696,-6.64967 -14.13762,-16.62811 -20.26367,-19.74414 l -5.18555,-2.63672 3.54492,5.54102 c 7.5165,11.75014 11.35381,25.39742 11.30079,40.17773 -0.0669,18.62516 -16.56265,36.56254 -39.31446,42.75 -12.60442,3.42781 -34.69406,2.67242 -50.96875,-1.74218 -10.58256,-2.87059 -28.04297,-11.90907 -36.1914,-18.73438 -7.47149,-6.2583 -13.19513,-14.50221 -14.14844,-20.37695 -0.56239,-3.46556 -0.53537,-3.49548 4.29101,-4.68555 2.67149,-0.65872 9.05753,-3.22772 14.19141,-5.70898 15.73739,-7.60602 26.92615,-20.48157 30.74219,-35.37696 5.13675,-20.05078 -9.65704,-36.19415 -38.07617,-41.54882 -10.91796,-2.05719 -33.64087,-1.54507 -42.82813,0.96484 -23.34038,6.37645 -34.30103,21.96111 -29.19922,41.51758 0.92402,3.54201 2.50364,8.05322 3.50977,10.02539 3.42785,6.71915 10.81835,15.55147 16.67383,19.92578 6.627,4.95068 10.28177,6.72058 18.84375,9.12695 3.3,0.92748 5.95343,2.20268 5.89843,2.83399 -0.055,0.63129 -0.16749,2.25742 -0.25,3.61328 -0.49989,8.2156 -23.51951,21.96595 -43.79101,26.1582 -5.33014,1.1023 -11.24384,1.45914 -19.73438,1.1875 -10.88239,-0.34809 -12.67126,-0.67204 -17.46484,-3.16211 -16.63315,-8.64031 -24.16168,-25.01921 -21.2207,-46.16406 2.0066,-14.42693 12.09657,-30.74995 29.7832,-48.17969 5.1939,-5.11847 8.97342,-9.30664 8.39844,-9.30664 -2.71914,0 -13.31298,4.72996 -19.49805,8.70508 -16.85652,10.83361 -30.06462,30.36526 -35.30664,52.20703 -0.96412,4.01716 -2.23509,7.08789 -2.93164,7.08789 -2.67335,0 -3.88411,-7.3083 -3.8125,-23 0.0686,-15.03158 0.20017,-15.98353 4.38867,-31.5 3.47038,-12.85617 4.41189,-18.16138 4.78906,-27 0.46868,-10.98325 0.11572,-13.84064 -5.375,-43.5 -2.09438,-11.31329 -2.86412,-38.64321 -1.43359,-50.92773 3.79877,-32.62174 19.0953,-66.23464 40.375,-88.726566 23.88501,-25.245661 56.76189,-42.836364 95.91406,-51.316406 21.25743,-4.604186 30.26487,-5.468344 56.77149,-5.445313 z M 252.50586,381.67969 c 1.95103,1.19006 3.9081,2.37028 5.87891,3.52734 14.99771,9.06512 32.02635,16.32879 49.88476,15.63086 12.7783,-0.94651 25.69585,-2.94254 37.78906,-7.25781 15.00445,-6.91903 32.51076,-4.15194 46.95899,2.80859 11.45987,5.46115 22.91507,11.177 35.47656,13.69141 14.30079,3.96593 30.30211,5.82342 45.1543,5.05859 -1.27499,4.8751 -9.69245,14.16104 -14.82422,18.66797 -24.16811,18.74513 -54.74266,26.63547 -84.52734,30.89258 -37.48056,4.55826 -76.79748,3.32729 -112.26172,-10.72461 -14.97275,-6.37973 -31.88922,-16.47866 -34.75,-33.92383 -1.90162,-16.88916 12.20044,-30.11143 25.2207,-38.37109 z m 344.21875,20.4082 c 1.80193,0 11.2748,15.46652 12.07031,19.70703 0.96098,5.12258 -4.2237,12.58711 -18.60351,26.77735 -19.64319,19.38421 -28.07273,25.83888 -62,47.47656 -42.27319,26.96046 -59.79138,39.62894 -93.5,67.61328 -20.64711,17.14091 -35.31029,28.42578 -36.9336,28.42578 -0.66349,0 -5.67515,-3.96558 -11.13672,-8.81445 -9.31225,-8.26753 -35.53032,-35.20024 -36.26367,-37.25196 -0.18334,-0.51292 2.29166,-0.94477 5.5,-0.95898 3.20833,-0.0151 10.32585,-0.46231 15.81641,-0.99609 l 9.98242,-0.97071 8.03711,7.9961 c 4.42091,4.39793 8.40739,7.99609 8.85742,7.99609 0.45003,0 6.87305,-5.5125 14.27344,-12.25 12.40316,-11.29217 14.21345,-12.56778 23.16016,-16.33008 36.21955,-15.23115 54.87728,-29.93451 65.30859,-51.46875 2.43711,-5.03112 3.61166,-6.27809 8.01953,-8.51172 14.23026,-7.21103 42.94281,-26.59941 57.37891,-38.74609 9.27095,-7.80064 21.25887,-19.69084 25.15039,-24.94336 1.93557,-2.61248 4.13291,-4.75 4.88281,-4.75 z m -109.21094,20.0293 c -0.11716,13.80272 -0.23402,27.60548 -0.35156,41.4082 -5.74681,21.05337 -24.75132,34.42322 -43.58984,42.85742 -27.9007,11.9664 -62.36493,22.03672 -95.63868,21.29688 -15.18824,0.22288 -30.45012,0.11705 -45.32226,-3.48242 -27.71191,-5.92457 -57.04684,-16.51607 -72.9668,-41.30274 v -31.69531 c 10.43576,8.69828 22.71281,14.94294 35.41602,19.60937 45.16293,15.80039 96.16949,16.11431 141.99023,3.4961 30.95263,-9.06596 61.37235,-25.18614 80.46289,-52.1875 z m 126.27735,27.9707 c 3.4481,0 46.9805,61.03787 67.30468,94.36914 8.91194,14.61547 25.7932,45.68727 32.125,59.13086 2.59045,5.50001 7.84667,16.52497 11.68164,24.5 7.83474,16.29275 12.28907,27.00513 12.28907,29.56055 0,2.23869 -9.73437,13.30157 -14.66211,16.66406 -2.71881,1.85522 -6.17216,2.94868 -11.83789,3.74805 -20.75577,2.92845 -42.6391,13.43498 -61.88086,29.70898 -8.83091,7.46884 -9.40305,7.87043 -10.14063,7.13281 -0.33864,-0.33864 0.53419,-6.62288 1.93946,-13.96484 5.23103,-27.33014 6.04784,-36.42816 6.0371,-67.34961 -0.0113,-36.98169 -1.72446,-49.59782 -9.63086,-71 l -3.32421,-9 -0.625,41 c -0.71675,47.13475 -2.27749,66.48728 -7.9043,98 -1.08023,6.05 -3.54614,20.22503 -5.48047,31.5 -5.83374,34.00388 -5.71141,33.69595 -11.28516,28.45899 -4.12822,-3.87882 -12.12279,-8.98773 -20.83789,-13.31446 -30.50082,-15.14264 -75.86037,-21.36469 -112.74414,-15.4668 l -3.93554,0.62891 0.7207,-3.40234 c 0.39647,-1.87147 0.91171,-4.0793 1.14453,-4.9043 4.6323,-16.41566 9.20149,-33.97788 12.48828,-48 7.54965,-32.20796 16.77958,-68.30536 23.01172,-90 3.39693,-11.82501 6.28139,-21.95 6.41016,-22.5 0.25209,-1.07698 1.53753,-4.37495 2.33789,-6 1.00029,-2.031 -1.59113,1.09704 -7.04102,8.5 -14.03561,19.06553 -21.33854,38.36642 -38.31055,101.24609 -9.16453,33.95399 -13.14079,47.51538 -18.39453,62.75391 -4.55743,13.21882 -4.80556,15.81796 -2.0625,21.48438 1.64848,3.40527 2.85632,4.42597 7,5.91601 3.26022,1.17237 5.00669,2.37722 5.00586,3.45117 -0.002,2.42582 -4.84259,21.98759 -5.95507,24.06641 -0.76725,1.43365 -3.23043,2.01124 -12.61719,2.96289 -12.54902,1.27223 -40.39336,2.18219 -46.92578,1.5332 -5.03868,-0.50056 -22.33687,-2.57631 -25,-3 -2.68648,-0.42739 -12.6555,-3.20601 -12.91407,-3.59961 -0.11316,-0.17234 -1.47242,-6.16445 -3.02148,-13.31445 -1.54906,-7.15 -3.08657,-13.45 -3.41602,-14 -0.32946,-0.55 -0.73916,-2.12501 -0.91015,-3.5 -0.54096,-4.3502 -8.19985,-26.56639 -18.96289,-55 -24.55486,-64.86867 -30.20258,-81.40798 -33.88282,-99.25 -0.99265,-4.81251 -2.18135,-8.75 -2.64257,-8.75 -0.46125,0 -0.73623,0.5625 -0.61133,1.25 0.12491,0.6875 -0.11813,5.29999 -0.53906,10.25 -2.04937,24.10061 6.42109,60.15275 27.35742,116.43555 3.3624,9.03908 5.90414,16.98 5.64844,17.64648 -0.32629,0.85032 -3.87877,-0.091 -11.91211,-3.1543 -28.91795,-11.0269 -72.67094,-18.80031 -87.10352,-15.47656 -2.70046,0.62189 -5.2572,0.77449 -5.67969,0.33985 -1.65717,-1.70442 7.76915,-74.67717 14.2461,-110.29102 4.35891,-23.96765 15.18817,-65.2 18.04882,-68.7207 0.77428,-0.9529 1.79556,-0.86811 4.64258,0.38476 16.96548,7.46582 47.34995,14.24482 64.43555,14.37696 l 5.2168,0.041 6.48632,8.11133 c 13.09524,16.37095 45.70539,48.26444 54.30665,53.11523 7.29446,4.11387 11.47978,1.76306 43.20703,-24.28125 37.47397,-30.76161 63.0402,-49.11575 104.5,-75.01757 20.36946,-12.72575 29.2046,-18.62639 39.5,-26.38282 8.19636,-6.17499 28.49036,-23.66164 31.90429,-27.49023 1.04776,-1.17498 2.48541,-2.13672 3.19532,-2.13672 z m 168.33984,21.66016 c 2.52506,-2.52503 28.18698,21.45431 36.25,33.87304 10.23005,15.75636 16.31575,31.27157 19.32422,49.26368 2.10172,12.56904 1.61133,49.68596 -0.79102,59.91015 l -1.45703,6.20703 4.61719,-3.15429 c 2.53931,-1.73454 7.17222,-5.5788 10.29687,-8.54297 9.66214,-9.16581 11.35002,-6.15826 6.32813,11.2832 -5.70456,19.81247 -18.65145,41.28697 -37.96094,62.9668 -6.35165,7.13132 -11.54687,13.31883 -11.54687,13.75 0,1.09202 11.55857,0.90049 17,-0.28125 12.32428,-2.67666 13.4667,-2.47377 10.44531,1.83984 -4.51,6.43896 -40.14086,29.23887 -45.66797,29.22266 -0.70318,-0.002 -2.14656,-2.13956 -3.20898,-4.75 C 780.73462,710.98905 767.80966,694.44806 757.75781,687.5 l -2.93164,-2.02539 2.43164,-4.94336 c 3.03398,-6.16494 3.0513,-13.09527 0.0586,-23.07031 l -2.13868,-7.12891 7.78907,-10.44336 c 19.2531,-25.81565 28.69053,-54.79181 29.93554,-91.91406 0.84949,-25.32775 -1.53649,-44.05485 -8.26367,-64.86523 -1.95023,-6.03315 -3.01434,-10.85476 -2.50781,-11.36133 z M 146.80664,677.32812 c 1.01986,0.007 1.9638,0.0706 2.80859,0.19727 5.54567,0.83165 5.55262,0.91621 0.94532,11.5625 -2.57456,5.94909 -2.80384,7.47462 -2.70899,18 0.0839,9.30788 0.60418,13.17708 2.73047,20.29688 4.97101,16.64526 12.14627,27.36488 21.27735,31.78515 3.91626,1.89585 5.00529,2.03268 8.30859,1.04297 13.38103,-4.00906 5.83865,-33.52806 -9.75586,-38.18164 -3.9295,-1.1726 -4.51729,-1.09945 -7.20899,0.89063 -1.61191,1.19171 -3.36408,2.16601 -3.89257,2.16601 -1.37776,0 -2.48453,-12.13967 -1.81446,-19.89844 0.67597,-7.8271 2.94211,-14.67123 5.90235,-17.82226 5.32894,-5.67239 17.82329,-0.95795 30.16406,11.38281 10.11172,10.11171 13.62891,15.49164 13.62891,20.84961 0,6.0017 5.1852,15.88812 10.26562,19.56836 2.21794,1.60664 4.58659,2.91992 5.26172,2.91992 3.40905,0 3.73917,2.58016 2.5293,19.74609 -0.64946,9.21472 -1.39788,17.51059 -1.66407,18.43555 -0.26619,0.925 -3.61186,2.6647 -6.19921,4.17383 -7.06234,3.89817 -13.07574,8.30368 -17.95313,14.13476 -3.64198,4.41476 -7.32507,8.99296 -9.56445,14.25977 -4.37139,10.88572 -5.32392,25.08302 -4.61133,30.24805 l 0.97852,7.00195 -3.27149,-0.0215 c -1.79971,-0.0113 -6.30801,-1.09308 -10.01758,-2.40235 v 0.002 c -14.03054,-4.9519 -23.95097,-11.86818 -38.29297,-26.69727 -33.58145,-34.72207 -49.47839,-69.86175 -44.533199,-98.44141 1.582779,-9.14728 5.718484,-18.43945 8.207031,-18.43945 1.445983,0 1.865238,0.74999 1.865238,3.3418 0,5.23211 3.67663,18.29477 6.72656,23.89843 3.46627,6.3687 15.32561,19.1865 21.21875,22.9336 17.57208,11.173 25.18605,-14.54774 8.98828,-30.36328 -8.50739,-8.30665 -17.10565,-8.75223 -19.40039,-1.00586 -2.52834,8.53493 -6.3963,-2.08885 -6.48242,-17.80469 -0.0481,-8.78468 1.3316,-14.62455 4.18554,-17.71484 4.5008,-4.87352 21.52023,-10.11138 31.37891,-10.04493 z m 570.25195,18.86524 c 1.64516,-0.0144 3.67233,0.0622 6.13282,0.18359 16.2873,0.80349 27.70602,6.30248 31.98437,15.4043 2.01116,4.2785 2.19986,5.87783 1.7461,14.80273 -0.34886,6.8617 -1.26483,12.20299 -2.91407,17 -2.69718,7.84517 -4.8546,9.32801 -6.35156,4.36719 -1.36929,-4.5377 -5.40101,-7.19473 -10.78906,-7.11328 -5.53448,0.0835 -9.50449,2.10877 -14.66797,7.48242 -5.21363,5.42582 -8.26535,11.8139 -8.81641,18.45899 -0.80553,9.71331 3.48817,15.30859 11.7461,15.30859 13.6374,0 32.72315,-18.73433 40.70703,-39.95898 1.7667,-4.69671 3.79672,-8.54102 4.50976,-8.54102 0.78611,0 2.16917,3.34609 3.51563,8.5 7.65127,29.28699 -3.90592,59.6948 -34.02539,89.51758 -21.98053,21.76399 -49.85534,39.56456 -72.14453,46.07226 -12.38431,3.6158 -30.7957,4.30053 -41,1.52344 -10.40398,-2.83143 -17.79328,-6.41184 -29.75,-14.41601 -9.78724,-6.55185 -10.7497,-7.47284 -10.75,-10.28125 -3.1e-4,-3.09249 3.97398,-31.69997 8.04687,-57.91602 1.19626,-7.69999 2.6883,-14.33031 3.31445,-14.73437 1.93002,-1.2454 8.66515,-0.85926 9.19727,0.52734 0.27288,0.71104 -0.1911,6.1891 -1.03125,12.17383 -1.63208,11.62662 -2.04358,26.5332 -0.73242,26.5332 0.43725,0 4.08409,-7.98748 8.10547,-17.75 17.16495,-41.67042 31.34668,-66.53299 45.85742,-80.39648 16.21822,-15.49478 37.07415,-24.04527 42.9414,-17.60352 3.91624,4.29967 4.74169,7.04771 4.73243,15.75 -0.0151,12.49236 -3.025,22.83356 -5.08594,17.46289 -0.83656,-2.18007 -5.16865,-4.07925 -9.8457,-4.3164 -7.17861,-0.36397 -14.23761,5.66983 -19.12696,16.3496 -2.17455,4.74985 -2.52903,6.73281 -2.17968,12.21875 0.37303,5.85956 0.75492,6.85179 3.62695,9.41797 2.58678,2.31126 4.13926,2.86719 7.99805,2.86719 11.98393,0 24.46032,-15.06744 31.69921,-38.28516 3.51474,-11.27289 3.23671,-21.75461 -0.84375,-31.71484 -2.67596,-6.53185 -2.91194,-8.52948 2.67383,-8.84766 0.46548,-0.0265 0.97115,-0.0421 1.51953,-0.0469 z m -473.69726,29.89453 5.16406,0.002 c 12.75698,5e-4 41.69458,6.45652 58.03906,12.94922 6.17622,2.45348 27.26016,12.50268 28.42969,13.55078 0.78875,0.70689 3.19267,29.41032 4.24219,50.64454 1.76173,35.6437 -0.34046,46.42854 -11.10156,56.91015 -6.61155,6.43986 -12.70169,9.47614 -23.09571,11.51758 -10.1547,1.99446 -14.91912,1.06365 -19.48633,-3.80469 -8.74157,-9.31797 -9.59602,-30.16254 -1.7832,-43.49414 l 2.50586,-4.27539 h -2.56836 c -3.87648,0 -10.78884,7.46594 -13.51172,14.59375 -4.41674,11.56188 -2.36147,29.15362 4.08789,34.99024 2.92318,2.6454 2.38654,4.41694 -1.34179,4.42382 -1.7875,0.003 -6.85001,0.20152 -11.25,0.44141 -4.40001,0.24 -10.6039,0.0261 -13.78516,-0.47461 -12.20251,-1.92144 -17.89398,-6.41489 -21.26367,-16.79102 -1.29458,-3.98634 -1.56864,-7.01877 -1.0957,-12.10742 0.80784,-8.69261 2.66048,-13.84888 7.66406,-21.34179 2.21236,-3.31306 3.79662,-6.25029 3.52148,-6.52539 -0.27515,-0.27515 -2.64751,0.6054 -5.27148,1.95507 -9.95228,5.11911 -17.20812,19.83075 -15.82227,32.08008 0.379,3.34991 1.36459,8.08224 2.19141,10.51758 0.82682,2.43534 1.24134,4.69226 0.91992,5.01367 -1.12027,1.12029 -7.37899,-2.67146 -9.92969,-6.01562 -9.87214,-12.94303 -9.1359,-31.6133 1.9043,-48.2461 4.37669,-6.59376 8.40859,-10.21723 19.17383,-17.23437 6.99416,-4.55902 8.39015,-5.93007 9.23242,-9.07422 0.54574,-2.03724 1.46177,-13.15511 2.03516,-24.70508 0.57338,-11.55001 1.30192,-24.26252 1.61914,-28.25 z m 253.36914,14.04102 c 11.7162,0.0134 30.35329,1.07982 38.45898,2.43554 21.31514,3.5647 46.02658,11.81957 47.5918,15.89844 0.30765,0.80221 -1.02398,9.27115 -2.95898,18.82031 -4.24797,20.96338 -8.09241,43.75391 -9.66602,57.30469 -2.65036,22.82283 -8.21865,34.46152 -19.70898,41.19531 -6.43949,3.77379 -17.56965,4.45731 -21.52735,1.32227 -3.71138,-2.93998 -5.67685,-6.9927 -6.81445,-14.05664 -1.23999,-7.69966 0.37534,-21.91577 3.45312,-30.39453 2.1024,-5.79202 2.16583,-6.38568 0.58399,-5.53907 -6.10262,3.26601 -11.94095,12.79672 -14.04883,22.93946 -1.61148,7.75415 -0.7179,19.59636 1.85547,24.59765 1.14977,2.2345 1.78713,4.55246 1.41601,5.15235 -1.98472,3.2081 -29.99618,4.38974 -40.17382,1.69531 h -0.002 c -10.72873,-2.84173 -14.24662,-7.85821 -14.83789,-21.16211 -0.65631,-14.76722 1.84165,-23.85922 9.20508,-33.50586 l 3.48047,-4.56055 -2.73242,0.78516 c -4.23515,1.21463 -8.40622,3.61451 -10.75391,6.1875 -3.05231,3.34518 -6.86585,11.43265 -8.41406,17.84375 -1.57894,6.53855 -1.574,22.30201 0.008,26.41406 1.67679,4.35799 0.13914,5.11667 -6.27344,3.09961 -10.77959,-3.39061 -16.61592,-10.92754 -17.44921,-22.53515 -1.01435,-14.12947 4.69196,-28.06387 16.1914,-39.54297 3.89276,-3.88589 9.70593,-8.55553 12.91992,-10.37696 12.44183,-7.05112 14.09541,-10.25017 21.83985,-42.26171 l 5.00781,-20.70313 4.58594,-0.6875 c 1.72056,-0.25801 4.85827,-0.36969 8.76367,-0.36523 z M 356.2793,792.56836 c 0.61408,-0.0378 3.82024,0.82016 7.44531,2.00195 12.88273,4.19989 24.15285,5.51758 47.14258,5.51758 14.75539,0 21.32422,0.33781 21.32422,1.09375 0,0.60098 -2.36248,3.71075 -5.25,6.91016 -7.03019,7.78964 -11.45948,15.35793 -14.78516,25.27148 l -2.75781,8.22461 -26.60352,0.26758 c -14.63191,0.14664 -26.63247,0.14664 -26.66601,0 -0.3679,-1.60657 -0.30775,-49.03877 0.0625,-49.26758 0.0172,-0.0107 0.0469,-0.017 0.0879,-0.0195 z"
       transform="scale(0.26458333)" />
  </g>
  <g
     inkscape:groupmode="layer"
     id="layer16"
     inkscape:label="Ear and paw pad path"
     style="display:inline"
     sodipodi:insensitive="true"
     transform="translate(5,12.324591)">
    <path
       style="display:inline;fill:#834b21;fill-opacity:1;stroke:none;stroke-width:0.264583;stroke-opacity:1"
       d="m 41.394471,103.93859 c -0.303792,-0.32742 -0.729655,-1.19063 -0.946362,-1.91823 -1.876856,-6.301632 -2.697151,-8.162042 -5.658992,-12.83447 -3.873535,-6.110657 -5.634966,-11.282108 -5.631696,-16.53428 0.0039,-6.31227 2.197253,-11.329989 8.327048,-19.049999 4.246295,-5.347885 7.311403,-9.870267 10.84916,-16.007291 3.718173,-6.449996 5.740537,-8.994975 9.131363,-11.491086 2.048687,-1.508112 4.01044,-2.521437 6.35,-3.280034 2.501148,-0.81099 3.945268,-1.091343 4.124851,-0.800769 0.08415,0.136157 -0.641966,1.463111 -1.61359,2.948786 -3.475797,5.314712 -5.915549,11.406488 -7.04328,17.586247 -0.711763,3.900347 -0.754409,10.173599 -0.105651,15.542064 0.764784,6.328576 0.337603,9.665427 -2.236803,17.472442 -1.819225,5.516885 -2.077543,6.560018 -3.175278,12.822348 -1.312034,7.484858 -2.525101,10.508607 -5.321371,13.264282 -2.618393,2.58039 -5.812244,3.61338 -7.049399,2.27999 z"
       id="path10504-5" />
    <ellipse
       style="display:inline;fill:#3c1c13;fill-opacity:0.972549;stroke:none;stroke-width:0.266835;stroke-miterlimit:4;stroke-dasharray:none;stroke-opacity:1"
       id="path220893"
       cx="-64.284622"
       cy="184.11967"
       rx="3.9295125"
       ry="5.9439564"
       transform="matrix(0.84933017,-0.52786197,0.48426256,0.87492272,0,0)" />
    <ellipse
       style="display:inline;fill:#3c1c13;fill-opacity:0.972549;stroke:none;stroke-width:0.258978;stroke-miterlimit:4;stroke-dasharray:none;stroke-opacity:1"
       id="path220893-6"
       cx="-53.44413"
       cy="190.48224"
       rx="3.7942913"
       ry="5.7985835"
       transform="matrix(0.84608516,-0.53304774,0.47669067,0.8790711,0,0)" />
    <ellipse
       style="display:inline;fill:#3c1c13;fill-opacity:0.972549;stroke:none;stroke-width:0.283185;stroke-miterlimit:4;stroke-dasharray:none;stroke-opacity:1"
       id="path220893-6-5"
       cx="253.18707"
       cy="144.74763"
       rx="4.317853"
       ry="6.0925536"
       transform="matrix(0.96248425,0.27133754,-0.42715682,0.90417756,0,0)" />
    <ellipse
       style="display:inline;fill:#3c1c13;fill-opacity:0.972549;stroke:none;stroke-width:0.286815;stroke-miterlimit:4;stroke-dasharray:none;stroke-opacity:1"
       id="path220893-6-5-5"
       cx="257.38495"
       cy="158.49411"
       rx="4.3572593"
       ry="6.1932044"
       transform="matrix(0.9778333,0.20938492,-0.36778874,0.92990937,0,0)" />
  </g>
  <g
     inkscape:groupmode="layer"
     id="layer8"
     inkscape:label="Eyes and eyebrows"
     style="display:inline"
     sodipodi:insensitive="true"
     transform="translate(5,12.324591)">
    <path
       style="display:inline;fill:#000000;fill-opacity:1;stroke:none;stroke-width:0.264583;stroke-opacity:1"
       d="m 77.793497,37.269883 c 1.983671,-1.365856 3.824158,-1.86233 6.44634,-1.738913 1.94414,0.0915 2.554997,0.239347 3.93977,0.953532 0.901383,0.464878 1.790525,0.814102 1.969908,0.845235 1.450084,0.251674 0.579637,-3.05101 -0.626735,-4.323709 -1.638168,-1.728235 -4.10591,-2.061206 -6.414849,-1.646193 -5.349805,0.961584 -9.151715,5.314876 -10.190405,9.550326 -0.521272,2.125581 -0.272739,1.261654 1.76644,-1.032926 0.977638,-1.100084 2.479114,-2.173277 3.109531,-2.607352 z"
       id="path10488-8"
       sodipodi:nodetypes="sssssssss" />
    <path
       style="display:inline;fill:#000000;fill-opacity:1;stroke:none;stroke-width:0.264583;stroke-opacity:1"
       d="m 145.18193,40.98036 c -0.6637,-2.029164 -1.57715,-3.453783 -3.31718,-5.173546 -3.6047,-3.562691 -8.94225,-5.374952 -12.6764,-4.304014 -2.31717,0.664557 -4.09861,2.799816 -3.93875,4.721053 0.0709,0.851932 0.16367,0.969171 0.74247,0.938204 0.3638,-0.01947 1.43537,-0.372096 2.38125,-0.783629 2.38444,-1.037416 5.59889,-1.193872 8.01428,-0.390081 2.19851,0.731616 5.33165,2.80388 7.40239,4.895945 0.90693,0.916266 1.69394,1.627048 1.74892,1.579512 0.055,-0.04753 -0.10566,-0.715084 -0.35698,-1.483444 z"
       id="path10484-8" />
    <path
       id="path10476-2"
       style="display:inline;fill:#000000;fill-opacity:1;stroke:none;stroke-width:0.264583;stroke-opacity:1"
       d="m 84.048828,47.154297 c -3.832036,0.0063 -7.301054,2.811634 -8.525762,6.376679 -1.46187,3.790443 -1.666667,8.294783 0.297888,11.947888 1.26866,2.454124 4.016466,4.020088 6.776085,3.816254 3.268024,-0.122922 6.017784,-2.522663 7.387267,-5.369318 1.745021,-3.525094 2.044414,-7.759541 0.830592,-11.498682 -0.861683,-2.762831 -3.347293,-5.09839 -6.313135,-5.25605 -0.150426,-0.01184 -0.303233,-0.01093 -0.452935,-0.01677 z" />
    <path
       id="path10468-8"
       style="display:inline;fill:#000000;fill-opacity:1;stroke:none;stroke-width:0.264583;stroke-opacity:1"
       d="m 133.48242,48.287109 c -4.13363,0.144904 -7.82296,3.12976 -9.28266,6.929513 -1.96103,4.8919 -0.78815,11.086597 3.30085,14.548155 1.85416,1.541781 4.34995,2.463431 6.76501,1.953973 3.60851,-0.520562 6.82295,-3.02174 8.21862,-6.387816 1.51058,-3.567669 1.39005,-7.802797 -0.27181,-11.296997 -1.57251,-3.301524 -5.02882,-5.734572 -8.73001,-5.746828 z" />
  </g>
  <g
     inkscape:groupmode="layer"
     id="layer9"
     inkscape:label="Pupils path"
     style="display:inline"
     sodipodi:insensitive="true"
     transform="translate(5,12.324591)">
    <path
       id="path10478-2"
       style="display:inline;fill:#ffffff;fill-opacity:1;stroke:none;stroke-width:0.264583;stroke-opacity:1"
       d="m 85.5625,52.179688 c -1.212115,0.301511 -2.209878,1.457165 -2.160499,2.738172 -0.25727,1.519856 0.994359,3.105056 2.578468,3.017687 1.795332,-0.0333 2.858188,-2.297779 2.131234,-3.82481 -0.345807,-1.080099 -1.29743,-2.171643 -2.549203,-1.931049 z" />
    <path
       id="path10470-6"
       style="display:inline;fill:#ffffff;fill-opacity:1;stroke:none;stroke-width:0.264583;stroke-opacity:1"
       d="m 135.08789,53.490234 c -0.92437,0.108083 -1.6297,0.845759 -1.91638,1.648341 -0.23338,0.967474 -0.18003,2.013566 0.19269,2.916113 0.84623,1.621383 3.3371,1.588912 4.29986,0.09375 0.9214,-1.48035 0.67864,-3.518127 -0.79922,-4.412071 -0.51872,-0.336526 -1.18828,-0.26835 -1.77695,-0.246133 z"
       sodipodi:nodetypes="cccccc" />
    <path
       style="opacity:1;fill:#796c60;fill-opacity:1;stroke:none;stroke-width:0.264583px;stroke-linecap:butt;stroke-linejoin:miter;stroke-opacity:1"
       d="m 88.49603,79.329864 c 1.388916,-0.895334 3.013153,-1.424578 4.568425,-1.813791 1.555272,-0.389213 3.185797,-0.550932 5.121539,-0.50491 1.935746,0.04602 4.453826,0.198728 6.283396,0.855209 1.82957,0.656481 3.64481,1.459847 5.2213,2.308255 -0.18624,-1.59592 -0.88535,-2.94951 -2.36323,-4.007432 -1.47788,-1.057922 -3.05182,-1.859907 -4.74053,-2.197066 -1.68871,-0.337158 -3.212944,-0.330056 -5.117725,-0.294327 -1.90478,0.03573 -4.77344,0.823048 -6.910831,2.052857 -1.292586,0.820106 -1.962958,2.064679 -2.062344,3.601205 z"
       id="path249153"
       sodipodi:nodetypes="zzzzczzzzz" />
  </g>
</svg>
